<svg viewBox="0 0 395.52 131.92423971379438" height="131.92423971379438" width="395.52" data-background-color="#ffffff" preserveAspectRatio="xMidYMid meet" id="tight-bounds" xmlns="http://www.w3.org/2000/svg" xmlns:xlink="http://www.w3.org/1999/xlink"><g><svg viewBox="0 0 676.2877412843932 225.57328604546632" height="131.92423971379438" width="395.52"><g transform="matrix(1,0,0,1,280.76774128439325,54.33676328175258)"><svg viewBox="0 0 395.52 116.89975948196115" height="116.89975948196115" width="395.52"><g id="textblocktransform"><svg viewBox="0 0 395.52 116.89975948196115" height="116.89975948196115" width="395.52" id="textblock"><g><svg viewBox="0 0 395.52 116.89975948196115" height="116.89975948196115" width="395.52"><g transform="matrix(1,0,0,1,0,0)"><svg width="395.52" viewBox="0.75 -31.5 108.08999633789062 31.950000762939453" height="116.89975948196115" data-palette-color="#096a2e"><path d="M4.05 0L0.75 0 7.3-29.55 11.35-29.55 17.8 0 14.4 0 12.8-6.85 5.55-6.85 4.05 0ZM9.25-25.7L5.65-8.6 12.75-8.6 9.25-25.7ZM24.3 0L21.2 0 21.2-24.75 23.8-24.75 24.15-22.1Q24.7-23.5 25.95-24.1 27.2-24.7 28.45-24.85L28.45-24.85Q29.85-25.15 31.15-24.9L31.15-24.9 31.15-22.45Q30.95-22.5 30.45-22.55 29.95-22.6 29.37-22.6 28.8-22.6 28.3-22.4L28.3-22.4Q26.6-22.2 25.45-21.18 24.3-20.15 24.3-18.4L24.3-18.4 24.3 0ZM40.19 0.45L40.19 0.45Q37.74 0.45 36.19-0.13 34.64-0.7 33.94-2.23 33.24-3.75 33.24-6.7L33.24-6.7 33.24-18.9Q33.24-22.55 34.82-23.88 36.39-25.2 40.04-25.2L40.04-25.2Q43.59-25.2 45.17-23.9 46.74-22.6 46.74-19.1L46.74-19.1 46.74-15.85 43.64-15.85 43.64-19.2Q43.64-21.35 42.94-22.33 42.24-23.3 40.04-23.3L40.04-23.3Q37.84-23.3 37.09-22.33 36.34-21.35 36.34-19.2L36.34-19.2 36.34-5.9Q36.34-3.5 37.09-2.53 37.84-1.55 40.14-1.55L40.14-1.55Q42.24-1.55 42.94-2.5 43.64-3.45 43.64-5.9L43.64-5.9 43.64-9.25 46.74-9.25 46.74-6.7Q46.74-3.85 46.05-2.3 45.34-0.75 43.89-0.15 42.44 0.45 40.19 0.45ZM55.69 0.35L55.69 0.35Q54.54 0.35 53.37 0.03 52.19-0.3 51.37-1.48 50.54-2.65 50.54-5.15L50.54-5.15 50.54-7.55Q50.54-10.05 52.07-11.58 53.59-13.1 56.24-14.3L56.24-14.3Q57.94-15.15 59.02-15.8 60.09-16.45 60.64-17.25 61.19-18.05 61.19-19.4L61.19-19.4 61.19-20.45Q61.19-21.65 60.69-22.3 60.19-22.95 59.37-23.2 58.54-23.45 57.64-23.45L57.64-23.45Q55.39-23.45 54.69-22.23 53.99-21 53.99-18.6L53.99-18.6 53.99-16.5 51.14-16.5 51.14-18.9Q51.14-20.75 51.64-22.18 52.14-23.6 53.54-24.43 54.94-25.25 57.64-25.25L57.64-25.25Q60.49-25.25 61.92-24.6 63.34-23.95 63.82-22.75 64.29-21.55 64.29-19.9L64.29-19.9 64.29 0 61.24 0 61.19-3.1Q60.59-1.4 59.04-0.53 57.49 0.35 55.69 0.35ZM56.84-1.75L56.84-1.75Q59.09-1.75 60.12-3.35 61.14-4.95 61.14-7.6L61.14-7.6 61.14-15.5Q60.64-14.7 59.49-14.05 58.34-13.4 57.14-12.75L57.14-12.75Q55.44-11.75 54.52-10.68 53.59-9.6 53.59-7.7L53.59-7.7 53.59-5.75Q53.59-3.95 54.09-3.1 54.59-2.25 55.34-2 56.09-1.75 56.84-1.75ZM74.64 0.4L74.64 0.4Q72.79 0.4 71.59-0.08 70.39-0.55 69.72-1.43 69.04-2.3 68.79-3.63 68.54-4.95 68.54-6.65L68.54-6.65 68.54-19Q68.54-20.35 68.82-21.48 69.09-22.6 69.74-23.43 70.39-24.25 71.49-24.73 72.59-25.2 74.29-25.2L74.29-25.2Q76.29-25.2 77.42-24.6 78.54-24 79.04-23.15L79.04-23.15 79.04-31.5 82.14-31.5 82.14 0 79.99 0 79.69-2.35Q79.39-1.7 78.82-1.07 78.24-0.45 77.27-0.03 76.29 0.4 74.64 0.4ZM75.19-1.5L75.19-1.5Q76.64-1.5 77.44-2.02 78.24-2.55 78.57-3.4 78.89-4.25 78.97-5.28 79.04-6.3 79.04-7.3L79.04-7.3 79.04-20.85Q78.89-21.3 78.52-21.85 78.14-22.4 77.39-22.8 76.64-23.2 75.34-23.2L75.34-23.2Q73.89-23.2 73.14-22.8 72.39-22.4 72.07-21.73 71.74-21.05 71.69-20.2 71.64-19.35 71.64-18.45L71.64-18.45 71.64-6.25Q71.64-5.05 71.79-3.95 71.94-2.85 72.69-2.18 73.44-1.5 75.19-1.5ZM90.44 0L87.39 0 87.39-24.75 90.44-24.75 90.44 0ZM88.94-27.8L88.94-27.8Q88.19-27.8 87.66-28.33 87.14-28.85 87.14-29.55L87.14-29.55Q87.14-30.3 87.66-30.78 88.19-31.25 88.94-31.25L88.94-31.25Q89.64-31.25 90.19-30.78 90.74-30.3 90.74-29.55L90.74-29.55Q90.74-28.85 90.19-28.33 89.64-27.8 88.94-27.8ZM100.24 0.35L100.24 0.35Q99.09 0.35 97.91 0.03 96.74-0.3 95.91-1.48 95.09-2.65 95.09-5.15L95.09-5.15 95.09-7.55Q95.09-10.05 96.61-11.58 98.14-13.1 100.79-14.3L100.79-14.3Q102.49-15.15 103.56-15.8 104.64-16.45 105.19-17.25 105.74-18.05 105.74-19.4L105.74-19.4 105.74-20.45Q105.74-21.65 105.24-22.3 104.74-22.95 103.91-23.2 103.09-23.45 102.19-23.45L102.19-23.45Q99.94-23.45 99.24-22.23 98.54-21 98.54-18.6L98.54-18.6 98.54-16.5 95.69-16.5 95.69-18.9Q95.69-20.75 96.19-22.18 96.69-23.6 98.09-24.43 99.49-25.25 102.19-25.25L102.19-25.25Q105.04-25.25 106.46-24.6 107.89-23.95 108.36-22.75 108.84-21.55 108.84-19.9L108.84-19.9 108.84 0 105.79 0 105.74-3.1Q105.14-1.4 103.59-0.53 102.04 0.35 100.24 0.35ZM101.39-1.75L101.39-1.75Q103.64-1.75 104.66-3.35 105.69-4.95 105.69-7.6L105.69-7.6 105.69-15.5Q105.19-14.7 104.04-14.05 102.89-13.4 101.69-12.75L101.69-12.75Q99.99-11.75 99.06-10.68 98.14-9.6 98.14-7.7L98.14-7.7 98.14-5.75Q98.14-3.95 98.64-3.1 99.14-2.25 99.89-2 100.64-1.75 101.39-1.75Z" opacity="1" transform="matrix(1,0,0,1,0,0)" fill="#096a2e" class="wordmark-text-0" data-fill-palette-color="primary" id="text-0"></path></svg></g></svg></g></svg></g></svg></g><g><svg viewBox="0 0 225.57328604546632 225.57328604546632" height="225.57328604546632" width="225.57328604546632"><g><svg></svg></g><g id="icon-0"><svg viewBox="0 0 225.57328604546632 225.57328604546632" height="225.57328604546632" width="225.57328604546632"><g><path d="M0 112.787c0-62.29 50.496-112.787 112.787-112.787 62.29 0 112.787 50.496 112.786 112.787 0 62.29-50.496 112.787-112.786 112.786-62.29 0-112.787-50.496-112.787-112.786zM112.787 215.031c56.468 0 102.245-45.776 102.244-102.244 0-56.468-45.776-102.245-102.244-102.245-56.468 0-102.245 45.776-102.245 102.245 0 56.468 45.776 102.245 102.245 102.244z" data-fill-palette-color="accent" fill="#8abe53" stroke="transparent"></path></g><g transform="matrix(1,0,0,1,73.90850439921653,49.13081587804309)"><svg viewBox="0 0 77.75627724703327 127.31165428938014" height="127.31165428938014" width="77.75627724703327"><g><svg xmlns="http://www.w3.org/2000/svg" xmlns:xlink="http://www.w3.org/1999/xlink" version="1.1" x="0" y="0" viewBox="19.461999893188477 0 61.075164794921875 99.9993896484375" enable-background="new 0 0 100 100" xml:space="preserve" height="127.31165428938014" width="77.75627724703327" class="icon-b-0" data-fill-palette-color="accent" id="b-0"><path fill="#8abe53" d="M78.61 16.243C78.607 16.31 78.607 16.38 78.601 16.448 78.355 19.504 76.706 23.627 75.155 25.809 73.599 27.994 70.351 32.069 67.876 34.446 65.406 36.821 67.006 37.26 60.405 41.093 53.812 44.924 48.815 44.924 46.534 50.115 46.534 50.115 46.819 50.407 46.482 51.085 46.482 51.085 48.082 51.765 50.028 54.189 50.028 54.189 53.056 54.108 54.163 54.92 54.163 54.92 59.306 55.099 59.62 55.429 59.932 55.763 59.796 56.038 59.122 56.869 58.456 57.701 57.197 56.934 56.785 57.815 56.367 58.691 52.944 59.41 52.944 59.41 52.985 62.892 58.47 66.139 71.411 66.449 71.411 66.449 76.945 70.173 67.402 99.132 62.78 101.903 61.485 97.519 54.466 93.244 47.451 88.972 49.099 82.765 45.463 79.369 41.829 75.973 40.901 71.025 39.4 70.973 37.897 70.929 31.785 72.139 29.942 71.994 28.094 71.849 27.803 73.251 24.361 73.208 20.913 73.158 21.743 72.331 21.743 72.331S19.462 72.189 19.462 68.985C19.462 65.785 20.338 68.015 27.855 61.174 27.855 61.174 29.266 59.283 29.698 58.945 29.698 58.945 29.744 56.761 30.717 56.13 31.684 55.498 33.193 54.868 33.532 54.626 33.869 54.385 34.984 53.851 34.888 53.075 34.795 52.296 34.551 53.026 34.255 52.588 33.965 52.152 34.165 51.424 33.918 49.385 33.674 47.348 27.756 43.031 26.837 39.779 25.914 36.53 29.386 42.629 31.374 42.969 33.365 43.31 36.202 43.468 36.054 39.828 35.911 36.19 36.93 32.844 34.983 29.979 33.044 27.117 30.689 21.946 31.226 17.288 31.743 12.745 34.137 10.121 34.254 9.998 34.142 10.172 31.926 13.742 33.109 21.217 34.319 28.882 38.523 28.136 38.523 28.136S43.915 25.71 44.542 16.59C45.158 7.682 48.504 0.579 48.661 0.254 48.606 0.49 47.623 4.348 47.48 8.579 47.333 12.945 48.08 13.001 48.08 13.001L53.611 7.758S52.256 9.458 49.879 14.164C48.773 16.162 48.524 15.085 47.113 19.16 45.708 23.236 46.727 21.924 45.223 24.692 43.717 27.457 41.291 30.078 41 32.891 41 32.891 40.069 36.552 39.979 40.248 39.892 43.943 38.868 47.543 39.204 47.832 39.544 48.124 40.176 47.93 40.029 48.9L41.267 48.103 41.93 48.071 44.619 45.96C44.425 44.553 43.02 43.097 43.168 40.478 43.31 37.859 45.347 31.502 45.733 31.502 45.733 31.502 44.668 38.585 45.834 40.575 46.995 42.562 47.48 43 48.499 42.273 49.518 41.544 51.018 41.592 51.655 41.155 52.283 40.72 59.728 38.955 62.639 34.393 62.639 34.393 62.543 32.552 61.086 30.173S60.7 20.713 60.7 20.713 61.518 21.608 61.57 24.81C61.615 28.013 62.447 29.347 64.865 30.853 67.294 32.356 71.708 25.079 73.455 21.442 75.196 17.8 76.079 15.52 75.686 14.017 75.303 12.516 76.809 0 76.809 0S77.812 0.174 78.082 9.655C80.93 6.869 79.747 4.476 79.747 4.476 81.448 5.874 80.09 11.379 78.61 16.243" data-fill-palette-color="accent"></path></svg></g></svg></g></svg></g></svg></g></svg></g><defs></defs></svg>